<?xml version="1.0" encoding="us-ascii" standalone="no"?><svg xmlns="http://www.w3.org/2000/svg" xmlns:xlink="http://www.w3.org/1999/xlink" contentStyleType="text/css" height="749px" preserveAspectRatio="none" style="width:578px;height:749px;background:#FFFFFF;" version="1.1" viewBox="0 0 578 749" width="578px" zoomAndPan="magnify"><defs/><g><g id="cluster_##2"><path d="M171.1072,14.8974 C175.2325,8.1326 179.1045,8.0437 183.6454,14.5033 C186.7116,8.7898 192.9356,9.0029 196.1359,14.3518 C199.685,8.052 204.8236,7.4206 209.0538,13.6494 C212.1475,6.6537 216.8874,6.0166 221.3752,12.3618 C225.1766,6.1759 229.1978,6.2373 233.5735,11.7637 C237.0905,6.3378 242.4467,6.1795 246.1584,11.5366 C250.7597,6 254.3152,7.0514 257.3828,13.0314 C261.0405,7.32 267.1971,7.1626 270.601,13.3142 C275.1058,8.5681 278.9727,9.5621 281.523,15.3422 C285.2019,9.735 289.0968,9.1684 293.3951,14.6809 C300.8366,15.7579 301.7066,21.4492 297.6639,26.6293 C302.8052,28.0167 304.3963,31.1939 301.0849,35.7513 C307.0781,38.0754 309.536,42.8675 303.8866,47.8809 C307.5842,53.1448 305.9422,57.6 299.8214,59.3985 C304.6098,63.7454 302.5359,68.7151 296.7843,70.0593 C301.7568,74.6775 299.502,79.3757 293.8728,81.2309 C289.4323,87.4706 284.7735,86.5976 281.7489,79.9036 C278.0083,85.654 273.4027,85.688 270.0143,79.5558 C266.9748,87.0015 262.6868,86.3735 257.6112,81.6269 C254.0171,87.8539 248.249,88.5234 244.4917,81.7921 C241.2154,87.8589 237.138,87.871 233.4853,82.1434 C230.1178,89.1055 223.7728,88.7108 220.5859,81.9733 C215.8156,87.5615 211.8252,87.41 207.8686,81.1033 C204.2929,86.9872 199.8678,87.9088 195.8418,81.5455 C192.1839,87.1436 187.5646,86.5302 184.0276,81.4123 C180.235,86.7777 174.3995,86.7631 172.1382,79.9209 C162.8939,75.8584 163.2056,69.9427 169.6624,63.5113 C161.7231,59.8564 161.3024,52.0226 168.2005,47.05 C161.151,40.1785 162.4437,35.0072 170.8466,30.6252 C164.5436,26.145 164.4236,19.1623 171.1072,14.8974 " fill="none" style="stroke:#181818;stroke-width:1.0;"/></g><!--cluster App--><g id="cluster_App"><path d="M8.5,119.0518 L125.5,119.0518 A3.75,3.75 0 0 1 128,121.5518 L135,144.1198 L528.5,144.1198 A2.5,2.5 0 0 1 531,146.6198 L531,463.5518 A2.5,2.5 0 0 1 528.5,466.0518 L8.5,466.0518 A2.5,2.5 0 0 1 6,463.5518 L6,121.5518 A2.5,2.5 0 0 1 8.5,119.0518 " fill="none" style="stroke:#000000;stroke-width:1.5;"/><line style="stroke:#000000;stroke-width:1.5;" x1="6" x2="135" y1="144.1198" y2="144.1198"/><text fill="#000000" font-family="sans-serif" font-size="14" font-weight="bold" lengthAdjust="spacing" textLength="116" x="10" y="136.0178">BE Code Exercise</text></g><!--cluster Contr--><g id="cluster_Contr"><rect fill="none" height="119" rx="2.5" ry="2.5" style="stroke:#181818;stroke-width:1.0;" width="437" x="46" y="238.0518"/><path d="M161,238.0518 L161,250.1198 L151,260.1198 L46,260.1198 " fill="none" style="stroke:#181818;stroke-width:1.0;"/><text fill="#000000" font-family="sans-serif" font-size="14" font-weight="bold" lengthAdjust="spacing" textLength="105" x="49" y="254.0178">Controller APIs</text></g><!--cluster DB--><g id="cluster_DB"><path d="M11.5,506.0518 L31.5,506.0518 A3.75,3.75 0 0 1 34,508.5518 L41,531.1198 L562.5,531.1198 A2.5,2.5 0 0 1 565,533.6198 L565,739.5518 A2.5,2.5 0 0 1 562.5,742.0518 L11.5,742.0518 A2.5,2.5 0 0 1 9,739.5518 L9,508.5518 A2.5,2.5 0 0 1 11.5,506.0518 " fill="none" style="stroke:#000000;stroke-width:1.5;"/><line style="stroke:#000000;stroke-width:1.5;" x1="9" x2="41" y1="531.1198" y2="531.1198"/><text fill="#000000" font-family="sans-serif" font-size="14" font-weight="bold" lengthAdjust="spacing" textLength="19" x="13" y="523.0178">DB</text></g><!--cluster PostgreSQL--><g id="cluster_PostgreSQL"><path d="M49,578.0518 C49,568.0518 283,568.0518 283,568.0518 C283,568.0518 517,568.0518 517,578.0518 L517,692.0518 C517,702.0518 283,702.0518 283,702.0518 C283,702.0518 49,702.0518 49,692.0518 L49,578.0518 " fill="none" style="stroke:#181818;stroke-width:1.0;"/><path d="M49,578.0518 C49,588.0518 283,588.0518 283,588.0518 C283,588.0518 517,588.0518 517,578.0518 " fill="none" style="stroke:#181818;stroke-width:1.0;"/><text fill="#000000" font-family="sans-serif" font-size="14" font-weight="bold" lengthAdjust="spacing" textLength="81" x="242.5" y="605.0178">PostgreSQL</text></g><!--entity Client--><g id="elem_Client"><rect fill="#F1F1F1" height="49.0679" rx="2.5" ry="2.5" style="stroke:#181818;stroke-width:0.5;" width="105" x="179.5" y="22.0518"/><rect fill="#F1F1F1" height="10" style="stroke:#181818;stroke-width:0.5;" width="15" x="264.5" y="27.0518"/><rect fill="#F1F1F1" height="2" style="stroke:#181818;stroke-width:0.5;" width="4" x="262.5" y="29.0518"/><rect fill="#F1F1F1" height="2" style="stroke:#181818;stroke-width:0.5;" width="4" x="262.5" y="33.0518"/><text fill="#000000" font-family="sans-serif" font-size="14" lengthAdjust="spacing" textLength="65" x="194.5" y="57.0178">API Client</text></g><!--entity API--><g id="elem_API"><rect fill="#F1F1F1" height="49.0679" rx="2.5" ry="2.5" style="stroke:#181818;stroke-width:0.5;" width="112" x="30" y="165.0518"/><rect fill="#F1F1F1" height="10" style="stroke:#181818;stroke-width:0.5;" width="15" x="122" y="170.0518"/><rect fill="#F1F1F1" height="2" style="stroke:#181818;stroke-width:0.5;" width="4" x="120" y="172.0518"/><rect fill="#F1F1F1" height="2" style="stroke:#181818;stroke-width:0.5;" width="4" x="120" y="176.0518"/><text fill="#000000" font-family="sans-serif" font-size="14" lengthAdjust="spacing" textLength="72" x="45" y="200.0178">API Routes</text></g><!--entity View--><g id="elem_View"><rect fill="#F1F1F1" height="49.0679" rx="2.5" ry="2.5" style="stroke:#181818;stroke-width:0.5;" width="110" x="177" y="165.0518"/><rect fill="#F1F1F1" height="10" style="stroke:#181818;stroke-width:0.5;" width="15" x="267" y="170.0518"/><rect fill="#F1F1F1" height="2" style="stroke:#181818;stroke-width:0.5;" width="4" x="265" y="172.0518"/><rect fill="#F1F1F1" height="2" style="stroke:#181818;stroke-width:0.5;" width="4" x="265" y="176.0518"/><text fill="#000000" font-family="sans-serif" font-size="14" lengthAdjust="spacing" textLength="70" x="192" y="200.0178">Json Views</text></g><!--entity Model--><g id="elem_Model"><rect fill="#F1F1F1" height="49.0679" rx="2.5" ry="2.5" style="stroke:#181818;stroke-width:0.5;" width="121" x="30.5" y="393.0518"/><rect fill="#F1F1F1" height="10" style="stroke:#181818;stroke-width:0.5;" width="15" x="131.5" y="398.0518"/><rect fill="#F1F1F1" height="2" style="stroke:#181818;stroke-width:0.5;" width="4" x="129.5" y="400.0518"/><rect fill="#F1F1F1" height="2" style="stroke:#181818;stroke-width:0.5;" width="4" x="129.5" y="404.0518"/><text fill="#000000" font-family="sans-serif" font-size="14" lengthAdjust="spacing" textLength="81" x="45.5" y="428.0178">Ecto Models</text></g><!--entity Cache--><g id="elem_Cache"><rect fill="#F1F1F1" height="49.0679" rx="2.5" ry="2.5" style="stroke:#181818;stroke-width:0.5;" width="121" x="345.5" y="393.0518"/><rect fill="#F1F1F1" height="10" style="stroke:#181818;stroke-width:0.5;" width="15" x="446.5" y="398.0518"/><rect fill="#F1F1F1" height="2" style="stroke:#181818;stroke-width:0.5;" width="4" x="444.5" y="400.0518"/><rect fill="#F1F1F1" height="2" style="stroke:#181818;stroke-width:0.5;" width="4" x="444.5" y="404.0518"/><text fill="#000000" font-family="sans-serif" font-size="14" lengthAdjust="spacing" textLength="81" x="360.5" y="428.0178">Cache Layer</text></g><!--entity Employee--><g id="elem_Employee"><rect fill="#F1F1F1" height="49.0679" rx="2.5" ry="2.5" style="stroke:#181818;stroke-width:0.5;" width="105" x="353.5" y="284.0518"/><rect fill="#F1F1F1" height="10" style="stroke:#181818;stroke-width:0.5;" width="15" x="438.5" y="289.0518"/><rect fill="#F1F1F1" height="2" style="stroke:#181818;stroke-width:0.5;" width="4" x="436.5" y="291.0518"/><rect fill="#F1F1F1" height="2" style="stroke:#181818;stroke-width:0.5;" width="4" x="436.5" y="295.0518"/><text fill="#000000" font-family="sans-serif" font-size="14" lengthAdjust="spacing" textLength="65" x="368.5" y="319.0178">Employee</text></g><!--entity Country--><g id="elem_Country"><rect fill="#F1F1F1" height="49.0679" rx="2.5" ry="2.5" style="stroke:#181818;stroke-width:0.5;" width="93" x="225.5" y="284.0518"/><rect fill="#F1F1F1" height="10" style="stroke:#181818;stroke-width:0.5;" width="15" x="298.5" y="289.0518"/><rect fill="#F1F1F1" height="2" style="stroke:#181818;stroke-width:0.5;" width="4" x="296.5" y="291.0518"/><rect fill="#F1F1F1" height="2" style="stroke:#181818;stroke-width:0.5;" width="4" x="296.5" y="295.0518"/><text fill="#000000" font-family="sans-serif" font-size="14" lengthAdjust="spacing" textLength="53" x="240.5" y="319.0178">Country</text></g><!--entity Currency--><g id="elem_Currency"><rect fill="#F1F1F1" height="49.0679" rx="2.5" ry="2.5" style="stroke:#181818;stroke-width:0.5;" width="101" x="89.5" y="284.0518"/><rect fill="#F1F1F1" height="10" style="stroke:#181818;stroke-width:0.5;" width="15" x="170.5" y="289.0518"/><rect fill="#F1F1F1" height="2" style="stroke:#181818;stroke-width:0.5;" width="4" x="168.5" y="291.0518"/><rect fill="#F1F1F1" height="2" style="stroke:#181818;stroke-width:0.5;" width="4" x="168.5" y="295.0518"/><text fill="#000000" font-family="sans-serif" font-size="14" lengthAdjust="spacing" textLength="61" x="104.5" y="319.0178">Currency</text></g><!--entity Currencies--><g id="elem_Currencies"><rect fill="#F1F1F1" height="49.0679" rx="2.5" ry="2.5" style="stroke:#181818;stroke-width:0.5;" width="113" x="92.5" y="629.0518"/><rect fill="#F1F1F1" height="10" style="stroke:#181818;stroke-width:0.5;" width="15" x="185.5" y="634.0518"/><rect fill="#F1F1F1" height="2" style="stroke:#181818;stroke-width:0.5;" width="4" x="183.5" y="636.0518"/><rect fill="#F1F1F1" height="2" style="stroke:#181818;stroke-width:0.5;" width="4" x="183.5" y="640.0518"/><text fill="#000000" font-family="sans-serif" font-size="14" lengthAdjust="spacing" textLength="73" x="107.5" y="664.0178">Currencies</text></g><!--entity Countries--><g id="elem_Countries"><rect fill="#F1F1F1" height="49.0679" rx="2.5" ry="2.5" style="stroke:#181818;stroke-width:0.5;" width="105" x="240.5" y="629.0518"/><rect fill="#F1F1F1" height="10" style="stroke:#181818;stroke-width:0.5;" width="15" x="325.5" y="634.0518"/><rect fill="#F1F1F1" height="2" style="stroke:#181818;stroke-width:0.5;" width="4" x="323.5" y="636.0518"/><rect fill="#F1F1F1" height="2" style="stroke:#181818;stroke-width:0.5;" width="4" x="323.5" y="640.0518"/><text fill="#000000" font-family="sans-serif" font-size="14" lengthAdjust="spacing" textLength="65" x="255.5" y="664.0178">Countries</text></g><!--entity Employees--><g id="elem_Employees"><rect fill="#F1F1F1" height="49.0679" rx="2.5" ry="2.5" style="stroke:#181818;stroke-width:0.5;" width="112" x="381" y="629.0518"/><rect fill="#F1F1F1" height="10" style="stroke:#181818;stroke-width:0.5;" width="15" x="473" y="634.0518"/><rect fill="#F1F1F1" height="2" style="stroke:#181818;stroke-width:0.5;" width="4" x="471" y="636.0518"/><rect fill="#F1F1F1" height="2" style="stroke:#181818;stroke-width:0.5;" width="4" x="471" y="640.0518"/><text fill="#000000" font-family="sans-serif" font-size="14" lengthAdjust="spacing" textLength="72" x="396" y="664.0178">Employees</text></g><!--link Client to API--><g id="link_Client_API"><path d="M179.29,47.0518 C137.47,47.0518 86,47.0518 86,47.0518 C86,47.0518 86,117.9018 86,158.7318 " fill="none" id="Client-to-API" style="stroke:#181818;stroke-width:1.0;"/><polygon fill="#181818" points="86,164.7318,90,155.7318,86,159.7318,82,155.7318,86,164.7318" style="stroke:#181818;stroke-width:1.0;"/></g><!--link View to Client--><g id="link_View_Client"><path d="M232,164.9718 C232,138.7718 232,103.5418 232,77.2918 " fill="none" id="View-to-Client" style="stroke:#181818;stroke-width:1.0;"/><polygon fill="#181818" points="232,71.2918,228,80.2918,232,76.2918,236,80.2918,232,71.2918" style="stroke:#181818;stroke-width:1.0;"/></g><!--link API to Contr--><g id="link_API_Contr"><path d="M54,214.2118 C54,218.3643 54,222.8665 54,227.5761 C54,229.9309 54,232.3376 54,234.7783 C54,235.3885 54,236.0008 54,236.615 C54,236.9221 54,237.2296 54,237.5376 C54,237.6916 54,231.8457 54,231.9999 " fill="none" id="API-to-Contr" style="stroke:#181818;stroke-width:1.0;"/><polygon fill="#181818" points="54,237.9999,58,228.9999,54,232.9999,50,228.9999,54,237.9999" style="stroke:#181818;stroke-width:1.0;"/></g><!--link Employee to Cache--><g id="link_Employee_Cache"><path d="M406,339.2818 C406,357.1218 406,369.1018 406,386.9118 " fill="none" id="Employee-Cache" style="stroke:#181818;stroke-width:1.0;"/><polygon fill="#181818" points="406,333.2818,402,342.2818,406,338.2818,410,342.2818,406,333.2818" style="stroke:#181818;stroke-width:1.0;"/><polygon fill="#181818" points="406,392.9118,410,383.9118,406,387.9118,402,383.9118,406,392.9118" style="stroke:#181818;stroke-width:1.0;"/></g><!--link Contr to Model--><g id="link_Contr_Model"><path d="M54,363.052 C54,363.3257 54,358.0101 54,358.2842 C54,359.3807 54,360.4797 54,361.5795 C54,363.7791 54,365.982 54,368.1737 C54,376.9406 54,379.5293 54,387.0218 " fill="none" id="Contr-Model" style="stroke:#181818;stroke-width:1.0;"/><polygon fill="#181818" points="54,357.052,50,366.052,54,362.052,58,366.052,54,357.052" style="stroke:#181818;stroke-width:1.0;"/><polygon fill="#181818" points="54,393.0218,58,384.0218,54,388.0218,50,384.0218,54,393.0218" style="stroke:#181818;stroke-width:1.0;"/></g><!--reverse link View to Contr--><g id="link_View_Contr"><path d="M183.75,220.0918 C183.75,228.2868 183.75,231.0268 183.75,237.7181 C183.75,237.8226 183.75,237.9267 183.75,238.0302 " fill="none" id="View-backto-Contr" style="stroke:#181818;stroke-width:1.0;"/><polygon fill="#181818" points="183.75,214.0918,179.75,223.0918,183.75,219.0918,187.75,223.0918,183.75,214.0918" style="stroke:#181818;stroke-width:1.0;"/></g><!--link Model to PostgreSQL--><g id="link_Model_PostgreSQL"><path d="M57,448.3618 C57,477.7118 57,522.1793 57,566.4206 C57,566.7662 57,561.1115 57,561.4563 " fill="none" id="Model-PostgreSQL" style="stroke:#181818;stroke-width:1.0;"/><polygon fill="#181818" points="57,442.3618,53,451.3618,57,447.3618,61,451.3618,57,442.3618" style="stroke:#181818;stroke-width:1.0;"/><polygon fill="#181818" points="57,567.4563,61,558.4563,57,562.4563,53,558.4563,57,567.4563" style="stroke:#181818;stroke-width:1.0;"/></g><!--link App to DB--><!--link Client to App--><!--link Countries to Employees--><g id="link_Countries_Employees"><path d="M345.8,654.0518 C357.2,654.0518 363.29,654.0518 374.81,654.0518 " fill="none" id="Countries-to-Employees" style="stroke:#181818;stroke-width:1.0;"/><polygon fill="#181818" points="380.81,654.0518,371.81,650.0518,375.81,654.0518,371.81,658.0518,380.81,654.0518" style="stroke:#181818;stroke-width:1.0;"/><text fill="#000000" font-family="sans-serif" font-size="13" lengthAdjust="spacing" textLength="22" x="352.31" y="668.9489">1:M</text></g><!--link Currencies to Countries--><g id="link_Currencies_Countries"><path d="M205.91,654.0518 C217.23,654.0518 223.07,654.0518 234.25,654.0518 " fill="none" id="Currencies-to-Countries" style="stroke:#181818;stroke-width:1.0;"/><polygon fill="#181818" points="240.25,654.0518,231.25,650.0518,235.25,654.0518,231.25,658.0518,240.25,654.0518" style="stroke:#181818;stroke-width:1.0;"/><text fill="#000000" font-family="sans-serif" font-size="13" lengthAdjust="spacing" textLength="22" x="212.08" y="668.9489">1:M</text></g><!--SRC=[RLCzRzim4DtvAmuQuab3Xov1KC2IXIA5NQWfqCNGm51dYx3C8qWAgL3alvSKgKfkhEdqxjq7toCTQN04h-GSNQ6L1eMJfDW6UZova3BotBab0upPYrIQ6tw5Fmpyju7lrA953P_J_mjNb-L_BnMwKIEGSHrDKCz76XnyhGx0tXaJFGrjwYRegacXSf1jwsSeU-dZ3BY5OuoRKA6vkF0pGbPKKFhfKFr68wJ5oDngtTplz-Bdeasi-hb96wzO9IbdgE_H9De4DFyt-sQz6ByalYLM23-GAk4LFFZz-iIQuW-qaeiEOSz7D6ba01hcly0yUQrnlHZupM-MIsUzRNkihhgd4R6vbonfy9NZ_TnW32gHakytWk-AB4rhkUElt7gi9klE1d_-s6UhJUOs4csp0gUvjzYyg5q6Re9P3o0coosRlOSy_vACYuf7OBuP_jvkwvfDX9I9vctWXCvhQe6h5gmZuyDm090AH52RBNB1KonD9imQHpGvE8Fv4C1eVbYw3czcLx34IqMBG87LoRP51TmOUhDm8fFU0ultDZz6GjE6qbtHh4v_amhiSEHT0GPx7fwdxQGEQlqJ6N8Jg8l2y0WPV7eyGCRM1YNUgd3XiRy0]--></g></svg>