<?xml version="1.0" encoding="us-ascii" standalone="no"?><svg xmlns="http://www.w3.org/2000/svg" xmlns:xlink="http://www.w3.org/1999/xlink" contentStyleType="text/css" height="739px" preserveAspectRatio="none" style="width:575px;height:739px;background:#FFFFFF;" version="1.1" viewBox="0 0 575 739" width="575px" zoomAndPan="magnify"><defs/><g><g id="cluster_##2"><path d="M268.1072,14.8974 C272.2325,8.1326 276.1045,8.0437 280.6454,14.5033 C283.7116,8.7898 289.9356,9.0029 293.1359,14.3518 C296.685,8.052 301.8236,7.4206 306.0538,13.6494 C309.1475,6.6537 313.8874,6.0166 318.3752,12.3618 C322.1766,6.1759 326.1978,6.2373 330.5735,11.7637 C334.0905,6.3378 339.4467,6.1795 343.1584,11.5366 C347.7597,6 351.3152,7.0514 354.3828,13.0314 C358.0405,7.32 364.1971,7.1626 367.601,13.3142 C372.1058,8.5681 375.9727,9.5621 378.523,15.3422 C382.2019,9.735 386.0968,9.1684 390.3951,14.6809 C397.8366,15.7579 398.7066,21.4492 394.6639,26.6293 C399.8052,28.0167 401.3963,31.1939 398.0849,35.7513 C404.0781,38.0754 406.536,42.8675 400.8866,47.8809 C404.5842,53.1448 402.9422,57.6 396.8214,59.3985 C401.6098,63.7454 399.5359,68.7151 393.7843,70.0593 C398.7568,74.6775 396.502,79.3757 390.8728,81.2309 C386.4323,87.4706 381.7735,86.5976 378.7489,79.9036 C375.0083,85.654 370.4027,85.688 367.0143,79.5558 C363.9748,87.0015 359.6868,86.3735 354.6112,81.6269 C351.0171,87.8539 345.249,88.5234 341.4917,81.7921 C338.2154,87.8589 334.138,87.871 330.4853,82.1434 C327.1178,89.1055 320.7728,88.7108 317.5859,81.9733 C312.8156,87.5615 308.8252,87.41 304.8686,81.1033 C301.2929,86.9872 296.8678,87.9088 292.8418,81.5455 C289.1839,87.1436 284.5646,86.5302 281.0276,81.4123 C277.235,86.7777 271.3995,86.7631 269.1382,79.9209 C259.8939,75.8584 260.2056,69.9427 266.6624,63.5113 C258.7231,59.8564 258.3024,52.0226 265.2005,47.05 C258.151,40.1785 259.4437,35.0072 267.8466,30.6252 C261.5436,26.145 261.4236,19.1623 268.1072,14.8974 " fill="none" style="stroke:#181818;stroke-width:1.0;"/></g><!--cluster App--><g id="cluster_App"><path d="M95.5,119.0518 L212.5,119.0518 A3.75,3.75 0 0 1 215,121.5518 L222,144.1198 L424.5,144.1198 A2.5,2.5 0 0 1 427,146.6198 L427,453.5518 A2.5,2.5 0 0 1 424.5,456.0518 L95.5,456.0518 A2.5,2.5 0 0 1 93,453.5518 L93,121.5518 A2.5,2.5 0 0 1 95.5,119.0518 " fill="none" style="stroke:#000000;stroke-width:1.5;"/><line style="stroke:#000000;stroke-width:1.5;" x1="93" x2="222" y1="144.1198" y2="144.1198"/><text fill="#000000" font-family="sans-serif" font-size="14" font-weight="bold" lengthAdjust="spacing" textLength="116" x="97" y="136.0178">BE Code Exercise</text></g><!--cluster DB--><g id="cluster_DB"><path d="M8.5,496.0518 L28.5,496.0518 A3.75,3.75 0 0 1 31,498.5518 L38,521.1198 L559.5,521.1198 A2.5,2.5 0 0 1 562,523.6198 L562,729.5518 A2.5,2.5 0 0 1 559.5,732.0518 L8.5,732.0518 A2.5,2.5 0 0 1 6,729.5518 L6,498.5518 A2.5,2.5 0 0 1 8.5,496.0518 " fill="none" style="stroke:#000000;stroke-width:1.5;"/><line style="stroke:#000000;stroke-width:1.5;" x1="6" x2="38" y1="521.1198" y2="521.1198"/><text fill="#000000" font-family="sans-serif" font-size="14" font-weight="bold" lengthAdjust="spacing" textLength="19" x="10" y="513.0178">DB</text></g><!--cluster PostgreSQL--><g id="cluster_PostgreSQL"><path d="M46,568.0518 C46,558.0518 280,558.0518 280,558.0518 C280,558.0518 514,558.0518 514,568.0518 L514,682.0518 C514,692.0518 280,692.0518 280,692.0518 C280,692.0518 46,692.0518 46,682.0518 L46,568.0518 " fill="none" style="stroke:#181818;stroke-width:1.0;"/><path d="M46,568.0518 C46,578.0518 280,578.0518 280,578.0518 C280,578.0518 514,578.0518 514,568.0518 " fill="none" style="stroke:#181818;stroke-width:1.0;"/><text fill="#000000" font-family="sans-serif" font-size="14" font-weight="bold" lengthAdjust="spacing" textLength="81" x="239.5" y="595.0178">PostgreSQL</text></g><!--entity Client--><g id="elem_Client"><rect fill="#F1F1F1" height="49.0679" rx="2.5" ry="2.5" style="stroke:#181818;stroke-width:0.5;" width="105" x="276.5" y="22.0518"/><rect fill="#F1F1F1" height="10" style="stroke:#181818;stroke-width:0.5;" width="15" x="361.5" y="27.0518"/><rect fill="#F1F1F1" height="2" style="stroke:#181818;stroke-width:0.5;" width="4" x="359.5" y="29.0518"/><rect fill="#F1F1F1" height="2" style="stroke:#181818;stroke-width:0.5;" width="4" x="359.5" y="33.0518"/><text fill="#000000" font-family="sans-serif" font-size="14" lengthAdjust="spacing" textLength="65" x="291.5" y="57.0178">API Client</text></g><!--entity API--><g id="elem_API"><rect fill="#F1F1F1" height="49.0679" rx="2.5" ry="2.5" style="stroke:#181818;stroke-width:0.5;" width="112" x="127" y="165.0518"/><rect fill="#F1F1F1" height="10" style="stroke:#181818;stroke-width:0.5;" width="15" x="219" y="170.0518"/><rect fill="#F1F1F1" height="2" style="stroke:#181818;stroke-width:0.5;" width="4" x="217" y="172.0518"/><rect fill="#F1F1F1" height="2" style="stroke:#181818;stroke-width:0.5;" width="4" x="217" y="176.0518"/><text fill="#000000" font-family="sans-serif" font-size="14" lengthAdjust="spacing" textLength="72" x="142" y="200.0178">API Routes</text></g><!--entity Contr--><g id="elem_Contr"><rect fill="#F1F1F1" height="49.0679" rx="2.5" ry="2.5" style="stroke:#181818;stroke-width:0.5;" width="114" x="199" y="274.0518"/><rect fill="#F1F1F1" height="10" style="stroke:#181818;stroke-width:0.5;" width="15" x="293" y="279.0518"/><rect fill="#F1F1F1" height="2" style="stroke:#181818;stroke-width:0.5;" width="4" x="291" y="281.0518"/><rect fill="#F1F1F1" height="2" style="stroke:#181818;stroke-width:0.5;" width="4" x="291" y="285.0518"/><text fill="#000000" font-family="sans-serif" font-size="14" lengthAdjust="spacing" textLength="74" x="214" y="309.0178">Controllers</text></g><!--entity View--><g id="elem_View"><rect fill="#F1F1F1" height="49.0679" rx="2.5" ry="2.5" style="stroke:#181818;stroke-width:0.5;" width="110" x="274" y="165.0518"/><rect fill="#F1F1F1" height="10" style="stroke:#181818;stroke-width:0.5;" width="15" x="364" y="170.0518"/><rect fill="#F1F1F1" height="2" style="stroke:#181818;stroke-width:0.5;" width="4" x="362" y="172.0518"/><rect fill="#F1F1F1" height="2" style="stroke:#181818;stroke-width:0.5;" width="4" x="362" y="176.0518"/><text fill="#000000" font-family="sans-serif" font-size="14" lengthAdjust="spacing" textLength="70" x="289" y="200.0178">Json Views</text></g><!--entity Model--><g id="elem_Model"><rect fill="#F1F1F1" height="49.0679" rx="2.5" ry="2.5" style="stroke:#181818;stroke-width:0.5;" width="121" x="117.5" y="383.0518"/><rect fill="#F1F1F1" height="10" style="stroke:#181818;stroke-width:0.5;" width="15" x="218.5" y="388.0518"/><rect fill="#F1F1F1" height="2" style="stroke:#181818;stroke-width:0.5;" width="4" x="216.5" y="390.0518"/><rect fill="#F1F1F1" height="2" style="stroke:#181818;stroke-width:0.5;" width="4" x="216.5" y="394.0518"/><text fill="#000000" font-family="sans-serif" font-size="14" lengthAdjust="spacing" textLength="81" x="132.5" y="418.0178">Ecto Models</text></g><!--entity Cache--><g id="elem_Cache"><rect fill="#F1F1F1" height="49.0679" rx="2.5" ry="2.5" style="stroke:#181818;stroke-width:0.5;" width="121" x="273.5" y="383.0518"/><rect fill="#F1F1F1" height="10" style="stroke:#181818;stroke-width:0.5;" width="15" x="374.5" y="388.0518"/><rect fill="#F1F1F1" height="2" style="stroke:#181818;stroke-width:0.5;" width="4" x="372.5" y="390.0518"/><rect fill="#F1F1F1" height="2" style="stroke:#181818;stroke-width:0.5;" width="4" x="372.5" y="394.0518"/><text fill="#000000" font-family="sans-serif" font-size="14" lengthAdjust="spacing" textLength="81" x="288.5" y="418.0178">Cache Layer</text></g><!--entity Currencies--><g id="elem_Currencies"><rect fill="#F1F1F1" height="49.0679" rx="2.5" ry="2.5" style="stroke:#181818;stroke-width:0.5;" width="113" x="89.5" y="619.0518"/><rect fill="#F1F1F1" height="10" style="stroke:#181818;stroke-width:0.5;" width="15" x="182.5" y="624.0518"/><rect fill="#F1F1F1" height="2" style="stroke:#181818;stroke-width:0.5;" width="4" x="180.5" y="626.0518"/><rect fill="#F1F1F1" height="2" style="stroke:#181818;stroke-width:0.5;" width="4" x="180.5" y="630.0518"/><text fill="#000000" font-family="sans-serif" font-size="14" lengthAdjust="spacing" textLength="73" x="104.5" y="654.0178">Currencies</text></g><!--entity Countries--><g id="elem_Countries"><rect fill="#F1F1F1" height="49.0679" rx="2.5" ry="2.5" style="stroke:#181818;stroke-width:0.5;" width="105" x="237.5" y="619.0518"/><rect fill="#F1F1F1" height="10" style="stroke:#181818;stroke-width:0.5;" width="15" x="322.5" y="624.0518"/><rect fill="#F1F1F1" height="2" style="stroke:#181818;stroke-width:0.5;" width="4" x="320.5" y="626.0518"/><rect fill="#F1F1F1" height="2" style="stroke:#181818;stroke-width:0.5;" width="4" x="320.5" y="630.0518"/><text fill="#000000" font-family="sans-serif" font-size="14" lengthAdjust="spacing" textLength="65" x="252.5" y="654.0178">Countries</text></g><!--entity Employees--><g id="elem_Employees"><rect fill="#F1F1F1" height="49.0679" rx="2.5" ry="2.5" style="stroke:#181818;stroke-width:0.5;" width="112" x="378" y="619.0518"/><rect fill="#F1F1F1" height="10" style="stroke:#181818;stroke-width:0.5;" width="15" x="470" y="624.0518"/><rect fill="#F1F1F1" height="2" style="stroke:#181818;stroke-width:0.5;" width="4" x="468" y="626.0518"/><rect fill="#F1F1F1" height="2" style="stroke:#181818;stroke-width:0.5;" width="4" x="468" y="630.0518"/><text fill="#000000" font-family="sans-serif" font-size="14" lengthAdjust="spacing" textLength="72" x="393" y="654.0178">Employees</text></g><!--link Client to API--><g id="link_Client_API"><path d="M276.29,47.0518 C234.47,47.0518 183,47.0518 183,47.0518 C183,47.0518 183,117.9018 183,158.7318 " fill="none" id="Client-to-API" style="stroke:#181818;stroke-width:1.0;"/><polygon fill="#181818" points="183,164.7318,187,155.7318,183,159.7318,179,155.7318,183,164.7318" style="stroke:#181818;stroke-width:1.0;"/></g><!--link View to Client--><g id="link_View_Client"><path d="M329,164.9718 C329,138.7718 329,103.5418 329,77.2918 " fill="none" id="View-to-Client" style="stroke:#181818;stroke-width:1.0;"/><polygon fill="#181818" points="329,71.2918,325,80.2918,329,76.2918,333,80.2918,329,71.2918" style="stroke:#181818;stroke-width:1.0;"/></g><!--link API to Contr--><g id="link_API_Contr"><path d="M219,214.2818 C219,232.1218 219,250.1018 219,267.9118 " fill="none" id="API-to-Contr" style="stroke:#181818;stroke-width:1.0;"/><polygon fill="#181818" points="219,273.9118,223,264.9118,219,268.9118,215,264.9118,219,273.9118" style="stroke:#181818;stroke-width:1.0;"/></g><!--link Contr to Cache--><g id="link_Contr_Cache"><path d="M293.25,329.2818 C293.25,347.1218 293.25,359.1018 293.25,376.9118 " fill="none" id="Contr-Cache" style="stroke:#181818;stroke-width:1.0;"/><polygon fill="#181818" points="293.25,323.2818,289.25,332.2818,293.25,328.2818,297.25,332.2818,293.25,323.2818" style="stroke:#181818;stroke-width:1.0;"/><polygon fill="#181818" points="293.25,382.9118,297.25,373.9118,293.25,377.9118,289.25,373.9118,293.25,382.9118" style="stroke:#181818;stroke-width:1.0;"/></g><!--link Contr to Model--><g id="link_Contr_Model"><path d="M218.75,329.2818 C218.75,347.1218 218.75,359.1018 218.75,376.9118 " fill="none" id="Contr-Model" style="stroke:#181818;stroke-width:1.0;"/><polygon fill="#181818" points="218.75,323.2818,214.75,332.2818,218.75,328.2818,222.75,332.2818,218.75,323.2818" style="stroke:#181818;stroke-width:1.0;"/><polygon fill="#181818" points="218.75,382.9118,222.75,373.9118,218.75,377.9118,214.75,373.9118,218.75,382.9118" style="stroke:#181818;stroke-width:1.0;"/></g><!--reverse link View to Contr--><g id="link_View_Contr"><path d="M293.5,220.2818 C293.5,238.1218 293.5,256.1018 293.5,273.9118 " fill="none" id="View-backto-Contr" style="stroke:#181818;stroke-width:1.0;"/><polygon fill="#181818" points="293.5,214.2818,289.5,223.2818,293.5,219.2818,297.5,223.2818,293.5,214.2818" style="stroke:#181818;stroke-width:1.0;"/></g><!--link Model to PostgreSQL--><g id="link_Model_PostgreSQL"><path d="M111.45,408.0518 C79.98,408.0518 54,408.0518 54,408.0518 C54,408.0518 54,464.1993 54,521.6631 C54,528.8461 54,536.0496 54,543.1666 C54,546.7251 54,550.262 54,553.7638 C54,554.6393 54,555.5126 54,556.3835 C54,556.8189 54,551.2537 54,551.6879 " fill="none" id="Model-PostgreSQL" style="stroke:#181818;stroke-width:1.0;"/><polygon fill="#181818" points="117.45,408.0518,108.45,404.0518,112.45,408.0518,108.45,412.0518,117.45,408.0518" style="stroke:#181818;stroke-width:1.0;"/><polygon fill="#181818" points="54,557.6879,58,548.6879,54,552.6879,50,548.6879,54,557.6879" style="stroke:#181818;stroke-width:1.0;"/></g><!--link App to DB--><!--link Client to App--><!--link Countries to Employees--><g id="link_Countries_Employees"><path d="M342.8,644.0518 C354.2,644.0518 360.29,644.0518 371.81,644.0518 " fill="none" id="Countries-to-Employees" style="stroke:#181818;stroke-width:1.0;"/><polygon fill="#181818" points="377.81,644.0518,368.81,640.0518,372.81,644.0518,368.81,648.0518,377.81,644.0518" style="stroke:#181818;stroke-width:1.0;"/><text fill="#000000" font-family="sans-serif" font-size="13" lengthAdjust="spacing" textLength="22" x="349.31" y="658.9489">1:M</text></g><!--link Currencies to Countries--><g id="link_Currencies_Countries"><path d="M202.91,644.0518 C214.23,644.0518 220.07,644.0518 231.25,644.0518 " fill="none" id="Currencies-to-Countries" style="stroke:#181818;stroke-width:1.0;"/><polygon fill="#181818" points="237.25,644.0518,228.25,640.0518,232.25,644.0518,228.25,648.0518,237.25,644.0518" style="stroke:#181818;stroke-width:1.0;"/><text fill="#000000" font-family="sans-serif" font-size="13" lengthAdjust="spacing" textLength="22" x="209.08" y="658.9489">1:M</text></g><!--SRC=[RPCnRzim48Lt_eg3XdZIqA5B41ImRA58OHTA2cGnD33KsI9CymYIGc8K-UyXHQgousewlVjEf_T4UJBW2Lx9Upf19oqABqcp1IZS-zYoyj3xkGECkQFKXbj-WhyCmhM0tzIXGmFVy_qpryVvVYCr-hD18Ejx6YN5ppHu-5blWNqm9XGDNNwQe9CXZTf3iMmUOQLag0lW3dQfRkE4uUB83mX5LSCgR8Vw7QsG3XEvDARz__EUmrvqcMeUsw_CYhItf1JQ38t23VRBXIXU9BvbAfOtK2r2VjlmTYfJOtsxaeiUOSFFQFFAA5pRN5T5zjDnpr-v2rf3pXyi_ddQJBruxLQ3jQY5HDTUY3G46zTQVJAApZXf7s7X8aPq1s8Csh4fSIZB7pckv3G9q_S8fsNPD6m4SYU5je0z-k350TSTE4ysbD40I0qYkcGPXOSqbvn_KNDiarWEKKo9npTkuZ5TLonpUMXE9rAzx3hKmAsbDmTxila8idHKobq2sYwEhglsmlfLAzBHxxe2Yuh7FyBrqiIe_YKCfOte72_SGm7VxhTGiCklaxcBmPbZdm00]--></g></svg>