<?xml version="1.0" encoding="us-ascii" standalone="no"?><svg xmlns="http://www.w3.org/2000/svg" xmlns:xlink="http://www.w3.org/1999/xlink" contentStyleType="text/css" height="758px" preserveAspectRatio="none" style="width:422px;height:758px;background:#FFFFFF;" version="1.1" viewBox="0 0 422 758" width="422px" zoomAndPan="magnify"><defs/><g><g id="cluster_##2"><path d="M201.1072,14.8974 C205.2325,8.1326 209.1045,8.0437 213.6454,14.5033 C216.7116,8.7898 222.9356,9.0029 226.1359,14.3518 C229.685,8.052 234.8236,7.4206 239.0538,13.6494 C242.1475,6.6537 246.8874,6.0166 251.3752,12.3618 C255.1766,6.1759 259.1978,6.2373 263.5735,11.7637 C267.0905,6.3378 272.4467,6.1795 276.1584,11.5366 C280.7597,6 284.3152,7.0514 287.3828,13.0314 C291.0405,7.32 297.1971,7.1626 300.601,13.3142 C305.1058,8.5681 308.9727,9.5621 311.523,15.3422 C315.2019,9.735 319.0968,9.1684 323.3951,14.6809 C330.8366,15.7579 331.7066,21.4492 327.6639,26.6293 C332.8052,28.0167 334.3963,31.1939 331.0849,35.7513 C337.0781,38.0754 339.536,42.8675 333.8866,47.8809 C337.5842,53.1448 335.9422,57.6 329.8214,59.3985 C334.6098,63.7454 332.5359,68.7151 326.7843,70.0593 C331.7568,74.6775 329.502,79.3757 323.8728,81.2309 C319.4323,87.4706 314.7735,86.5976 311.7489,79.9036 C308.0083,85.654 303.4027,85.688 300.0143,79.5558 C296.9748,87.0015 292.6868,86.3735 287.6112,81.6269 C284.0171,87.8539 278.249,88.5234 274.4917,81.7921 C271.2154,87.8589 267.138,87.871 263.4853,82.1434 C260.1178,89.1055 253.7728,88.7108 250.5859,81.9733 C245.8156,87.5615 241.8252,87.41 237.8686,81.1033 C234.2929,86.9872 229.8678,87.9088 225.8418,81.5455 C222.1839,87.1436 217.5646,86.5302 214.0276,81.4123 C210.235,86.7777 204.3995,86.7631 202.1382,79.9209 C192.8939,75.8584 193.2056,69.9427 199.6624,63.5113 C191.7231,59.8564 191.3024,52.0226 198.2005,47.05 C191.151,40.1785 192.4437,35.0072 200.8466,30.6252 C194.5436,26.145 194.4236,19.1623 201.1072,14.8974 " fill="none" style="stroke:#181818;stroke-width:1.0;"/></g><!--cluster App--><g id="cluster_App"><path d="M38.5,119.0518 L155.5,119.0518 A3.75,3.75 0 0 1 158,121.5518 L165,144.1198 L357.5,144.1198 A2.5,2.5 0 0 1 360,146.6198 L360,472.5518 A2.5,2.5 0 0 1 357.5,475.0518 L38.5,475.0518 A2.5,2.5 0 0 1 36,472.5518 L36,121.5518 A2.5,2.5 0 0 1 38.5,119.0518 " fill="none" style="stroke:#000000;stroke-width:1.5;"/><line style="stroke:#000000;stroke-width:1.5;" x1="36" x2="165" y1="144.1198" y2="144.1198"/><text fill="#000000" font-family="sans-serif" font-size="14" font-weight="bold" lengthAdjust="spacing" textLength="116" x="40" y="136.0178">BE Code Exercise</text></g><!--cluster DB--><g id="cluster_DB"><path d="M8.5,515.0518 L28.5,515.0518 A3.75,3.75 0 0 1 31,517.5518 L38,540.1198 L412.5,540.1198 A2.5,2.5 0 0 1 415,542.6198 L415,748.5518 A2.5,2.5 0 0 1 412.5,751.0518 L8.5,751.0518 A2.5,2.5 0 0 1 6,748.5518 L6,517.5518 A2.5,2.5 0 0 1 8.5,515.0518 " fill="none" style="stroke:#000000;stroke-width:1.5;"/><line style="stroke:#000000;stroke-width:1.5;" x1="6" x2="38" y1="540.1198" y2="540.1198"/><text fill="#000000" font-family="sans-serif" font-size="14" font-weight="bold" lengthAdjust="spacing" textLength="19" x="10" y="532.0178">DB</text></g><!--cluster PostgreSQL--><g id="cluster_PostgreSQL"><path d="M46,587.0518 C46,577.0518 206.5,577.0518 206.5,577.0518 C206.5,577.0518 367,577.0518 367,587.0518 L367,701.0518 C367,711.0518 206.5,711.0518 206.5,711.0518 C206.5,711.0518 46,711.0518 46,701.0518 L46,587.0518 " fill="none" style="stroke:#181818;stroke-width:1.0;"/><path d="M46,587.0518 C46,597.0518 206.5,597.0518 206.5,597.0518 C206.5,597.0518 367,597.0518 367,587.0518 " fill="none" style="stroke:#181818;stroke-width:1.0;"/><text fill="#000000" font-family="sans-serif" font-size="14" font-weight="bold" lengthAdjust="spacing" textLength="81" x="166" y="614.0178">PostgreSQL</text></g><!--entity Client--><g id="elem_Client"><rect fill="#F1F1F1" height="49.0679" rx="2.5" ry="2.5" style="stroke:#181818;stroke-width:0.5;" width="105" x="209.5" y="22.0518"/><rect fill="#F1F1F1" height="10" style="stroke:#181818;stroke-width:0.5;" width="15" x="294.5" y="27.0518"/><rect fill="#F1F1F1" height="2" style="stroke:#181818;stroke-width:0.5;" width="4" x="292.5" y="29.0518"/><rect fill="#F1F1F1" height="2" style="stroke:#181818;stroke-width:0.5;" width="4" x="292.5" y="33.0518"/><text fill="#000000" font-family="sans-serif" font-size="14" lengthAdjust="spacing" textLength="65" x="224.5" y="57.0178">API Client</text></g><!--entity API--><g id="elem_API"><rect fill="#F1F1F1" height="68.1358" rx="2.5" ry="2.5" style="stroke:#181818;stroke-width:0.5;" width="112" x="60" y="165.0518"/><rect fill="#F1F1F1" height="10" style="stroke:#181818;stroke-width:0.5;" width="15" x="152" y="170.0518"/><rect fill="#F1F1F1" height="2" style="stroke:#181818;stroke-width:0.5;" width="4" x="150" y="172.0518"/><rect fill="#F1F1F1" height="2" style="stroke:#181818;stroke-width:0.5;" width="4" x="150" y="176.0518"/><text fill="#000000" font-family="sans-serif" font-size="14" lengthAdjust="spacing" textLength="72" x="75" y="200.0178">API Routes</text><text fill="#000000" font-family="sans-serif" font-size="14" lengthAdjust="spacing" textLength="43" x="75" y="219.0857">/api/...</text></g><!--entity Contr--><g id="elem_Contr"><rect fill="#F1F1F1" height="49.0679" rx="2.5" ry="2.5" style="stroke:#181818;stroke-width:0.5;" width="114" x="64" y="293.0518"/><rect fill="#F1F1F1" height="10" style="stroke:#181818;stroke-width:0.5;" width="15" x="158" y="298.0518"/><rect fill="#F1F1F1" height="2" style="stroke:#181818;stroke-width:0.5;" width="4" x="156" y="300.0518"/><rect fill="#F1F1F1" height="2" style="stroke:#181818;stroke-width:0.5;" width="4" x="156" y="304.0518"/><text fill="#000000" font-family="sans-serif" font-size="14" lengthAdjust="spacing" textLength="74" x="79" y="328.0178">Controllers</text></g><!--entity View--><g id="elem_View"><rect fill="#F1F1F1" height="49.0679" rx="2.5" ry="2.5" style="stroke:#181818;stroke-width:0.5;" width="110" x="207" y="174.5518"/><rect fill="#F1F1F1" height="10" style="stroke:#181818;stroke-width:0.5;" width="15" x="297" y="179.5518"/><rect fill="#F1F1F1" height="2" style="stroke:#181818;stroke-width:0.5;" width="4" x="295" y="181.5518"/><rect fill="#F1F1F1" height="2" style="stroke:#181818;stroke-width:0.5;" width="4" x="295" y="185.5518"/><text fill="#000000" font-family="sans-serif" font-size="14" lengthAdjust="spacing" textLength="70" x="222" y="209.5178">Json Views</text></g><!--entity Model--><g id="elem_Model"><rect fill="#F1F1F1" height="49.0679" rx="2.5" ry="2.5" style="stroke:#181818;stroke-width:0.5;" width="121" x="60.5" y="402.0518"/><rect fill="#F1F1F1" height="10" style="stroke:#181818;stroke-width:0.5;" width="15" x="161.5" y="407.0518"/><rect fill="#F1F1F1" height="2" style="stroke:#181818;stroke-width:0.5;" width="4" x="159.5" y="409.0518"/><rect fill="#F1F1F1" height="2" style="stroke:#181818;stroke-width:0.5;" width="4" x="159.5" y="413.0518"/><text fill="#000000" font-family="sans-serif" font-size="14" lengthAdjust="spacing" textLength="81" x="75.5" y="437.0178">Ecto Models</text></g><!--entity Currencies--><g id="elem_Currencies"><rect fill="#F1F1F1" height="49.0679" rx="2.5" ry="2.5" style="stroke:#181818;stroke-width:0.5;" width="113" x="89.5" y="638.0518"/><rect fill="#F1F1F1" height="10" style="stroke:#181818;stroke-width:0.5;" width="15" x="182.5" y="643.0518"/><rect fill="#F1F1F1" height="2" style="stroke:#181818;stroke-width:0.5;" width="4" x="180.5" y="645.0518"/><rect fill="#F1F1F1" height="2" style="stroke:#181818;stroke-width:0.5;" width="4" x="180.5" y="649.0518"/><text fill="#000000" font-family="sans-serif" font-size="14" lengthAdjust="spacing" textLength="73" x="104.5" y="673.0178">Currencies</text></g><!--entity Countries--><g id="elem_Countries"><rect fill="#F1F1F1" height="49.0679" rx="2.5" ry="2.5" style="stroke:#181818;stroke-width:0.5;" width="105" x="237.5" y="638.0518"/><rect fill="#F1F1F1" height="10" style="stroke:#181818;stroke-width:0.5;" width="15" x="322.5" y="643.0518"/><rect fill="#F1F1F1" height="2" style="stroke:#181818;stroke-width:0.5;" width="4" x="320.5" y="645.0518"/><rect fill="#F1F1F1" height="2" style="stroke:#181818;stroke-width:0.5;" width="4" x="320.5" y="649.0518"/><text fill="#000000" font-family="sans-serif" font-size="14" lengthAdjust="spacing" textLength="65" x="252.5" y="673.0178">Countries</text></g><!--link Client to API--><g id="link_Client_API"><path d="M244.5,71.2518 C244.5,107.2918 244.5,170.0518 244.5,170.0518 C244.5,170.0518 212.89,170.0518 178.36,170.0518 " fill="none" id="Client-to-API" style="stroke:#181818;stroke-width:1.0;"/><polygon fill="#181818" points="172.36,170.0518,181.36,174.0518,177.36,170.0518,181.36,166.0518,172.36,170.0518" style="stroke:#181818;stroke-width:1.0;"/></g><!--link View to Client--><g id="link_View_Client"><path d="M279.5,174.5518 C279.5,146.1718 279.5,105.7018 279.5,77.2418 " fill="none" id="View-to-Client" style="stroke:#181818;stroke-width:1.0;"/><polygon fill="#181818" points="279.5,71.2418,275.5,80.2418,279.5,76.2418,283.5,80.2418,279.5,71.2418" style="stroke:#181818;stroke-width:1.0;"/></g><!--link API to Contr--><g id="link_API_Contr"><path d="M118,233.3318 C118,252.3318 118,269.5318 118,286.7618 " fill="none" id="API-to-Contr" style="stroke:#181818;stroke-width:1.0;"/><polygon fill="#181818" points="118,292.7618,122,283.7618,118,287.7618,114,283.7618,118,292.7618" style="stroke:#181818;stroke-width:1.0;"/></g><!--link Contr to Model--><g id="link_Contr_Model"><path d="M121,348.2818 C121,366.1218 121,378.1018 121,395.9118 " fill="none" id="Contr-Model" style="stroke:#181818;stroke-width:1.0;"/><polygon fill="#181818" points="121,342.2818,117,351.2818,121,347.2818,125,351.2818,121,342.2818" style="stroke:#181818;stroke-width:1.0;"/><polygon fill="#181818" points="121,401.9118,125,392.9118,121,396.9118,117,392.9118,121,401.9118" style="stroke:#181818;stroke-width:1.0;"/></g><!--reverse link View to Contr--><g id="link_View_Contr"><path d="M222.25,229.7118 C222.25,264.5618 222.25,318.0518 222.25,318.0518 C222.25,318.0518 201.1,318.0518 178.13,318.0518 " fill="none" id="View-backto-Contr" style="stroke:#181818;stroke-width:1.0;"/><polygon fill="#181818" points="222.25,223.7118,218.25,232.7118,222.25,228.7118,226.25,232.7118,222.25,223.7118" style="stroke:#181818;stroke-width:1.0;"/></g><!--link Model to PostgreSQL--><g id="link_Model_PostgreSQL"><path d="M75,457.4118 C75,472.5918 75,487.4093 75,510.0968 C75,521.4406 75,533.2518 75,545.0597 C75,550.9636 75,556.8666 75,562.7099 C75,565.6316 75,568.5383 75,571.4228 C75,572.865 75,574.3016 75,575.7318 C75,576.0893 75,570.4464 75,570.8032 " fill="none" id="Model-PostgreSQL" style="stroke:#181818;stroke-width:1.0;"/><polygon fill="#181818" points="75,451.4118,71,460.4118,75,456.4118,79,460.4118,75,451.4118" style="stroke:#181818;stroke-width:1.0;"/><polygon fill="#181818" points="75,576.8032,79,567.8032,75,571.8032,71,567.8032,75,576.8032" style="stroke:#181818;stroke-width:1.0;"/></g><!--link App to DB--><!--link Client to App--><!--link Currencies to Countries--><g id="link_Currencies_Countries"><path d="M202.91,663.0518 C214.23,663.0518 220.07,663.0518 231.25,663.0518 " fill="none" id="Currencies-to-Countries" style="stroke:#181818;stroke-width:1.0;"/><polygon fill="#181818" points="237.25,663.0518,228.25,659.0518,232.25,663.0518,228.25,667.0518,237.25,663.0518" style="stroke:#181818;stroke-width:1.0;"/><text fill="#000000" font-family="sans-serif" font-size="13" lengthAdjust="spacing" textLength="76" x="162.58" y="677.9489">one to many</text></g><!--SRC=[RLAnRi8m4Dtz5QSCPGfCNQgg4W5KKK6LKgaBpM2I0oo2px8TKLJnxxLZfq2f5v_VlVFTUxOb1PPWHTRI7YgXiRI29Ej1ZMlhKrfijlQS0SRCJaZ5DT_3DmEtUl1A5HfKS1_F2ovtv_DCIBH7XK3QRgc5QdwaniBpP0xin5XPKrF5sqhQAv8eBIJ3V0gZMhWu0MvW6UB2LoXUxlW68SacC7BTOVA5kXG60tEeLF7_VGlN5ysd770b1lr-F_BpQV6NFI9fDTKrQXFRU-26zcASAHy23v7bmnlIf7HEpjsSTMIryRMISPR4aIjk-OeRX-Lax4RZ-zkio_cr73LQeom5ck82fCRDzukTtEKzh_WEojOtmpe38KsVekOmRW0wUztZ3_ESjOIO2ShZ3eyj62LqODfuCAZtZNF_USOPYxnOT1RaMLjHLIY1Qqq70slIyMEmy83fCX2AofUEi-92mLNAi_tOummqrjp_KxCLoYi-EmMf3bewc-014lS-ViuzbyU4iHy0]--></g></svg>